HIERARCHY
ROOT Hips
{
	OFFSET 0.000000 71.427986 0.000000
	CHANNELS 6 Xposition Yposition Zposition Xrotation Yrotation Zrotation
	JOINT Pelvis
	{
		OFFSET 0.000000 0.000000 0.000000
		CHANNELS 3 Xrotation Yrotation Zrotation
		JOINT LeftUpLeg
		{
			OFFSET 6.797100 -2.508499 -1.318700
			CHANNELS 3 Xrotation Yrotation Zrotation
			JOINT LeftLeg
			{
				OFFSET 0.069008 -29.241863 0.690200
				CHANNELS 3 Xrotation Yrotation Zrotation
				JOINT LeftFoot
				{
					OFFSET -0.069008 -29.568123 -0.266800
					CHANNELS 3 Xrotation Yrotation Zrotation
					JOINT LeftToeBase
					{
						OFFSET 3.145500 -8.631000 16.059900
						CHANNELS 3 Xrotation Yrotation Zrotation
						End Site
						{
							OFFSET 0.000000 18.501587 0.000000
						}
					}
				}
			}
			JOINT Left_ShortSleeve
			{
				OFFSET 0.265923 -10.480953 1.153800
				CHANNELS 3 Xrotation Yrotation Zrotation
				End Site
				{
					OFFSET 1.725763 19.823879 0.000000
				}
			}
		}
		JOINT RightUpLeg
		{
			OFFSET -6.797100 -2.508499 -1.318700
			CHANNELS 3 Xrotation Yrotation Zrotation
			JOINT RightLeg
			{
				OFFSET -0.082453 -29.241932 0.688000
				CHANNELS 3 Xrotation Yrotation Zrotation
				JOINT RightFoot
				{
					OFFSET 0.082453 -29.568058 -0.264600
					CHANNELS 3 Xrotation Yrotation Zrotation
					JOINT RightToeBase
					{
						OFFSET -3.115300 -8.682800 16.113400
						CHANNELS 3 Xrotation Yrotation Zrotation
						End Site
						{
							OFFSET 0.000000 18.567114 0.000000
						}
					}
				}
			}
			JOINT Right_ShortSleeve
			{
				OFFSET -0.265923 -10.480953 1.153800
				CHANNELS 3 Xrotation Yrotation Zrotation
				End Site
				{
					OFFSET -1.725766 19.823910 0.000000
				}
			}
		}
	}
	JOINT Spine
	{
		OFFSET 0.000000 13.368103 0.470500
		CHANNELS 3 Xrotation Yrotation Zrotation
		JOINT Spine1
		{
			OFFSET 0.147000 13.837402 0.538800
			CHANNELS 3 Xrotation Yrotation Zrotation
			JOINT Spine2
			{
				OFFSET 0.168000 16.242897 -1.435500
				CHANNELS 3 Xrotation Yrotation Zrotation
				JOINT Neck
				{
					OFFSET 0.217200 18.631500 -1.679100
					CHANNELS 3 Xrotation Yrotation Zrotation
					JOINT Head
					{
						OFFSET 0.000000 6.599396 1.385900
						CHANNELS 3 Xrotation Yrotation Zrotation
						JOINT Hat
						{
							OFFSET -0.532200 27.220596 -10.096100
							CHANNELS 3 Xrotation Yrotation Zrotation
							End Site
							{
								OFFSET 0.000000 22.029861 0.000000
							}
						}
						JOINT HairD
						{
							OFFSET -10.777400 17.437393 -1.325900
							CHANNELS 3 Xrotation Yrotation Zrotation
							JOINT HairD1
							{
								OFFSET -3.290299 -11.051193 1.062200
								CHANNELS 3 Xrotation Yrotation Zrotation
								End Site
								{
									OFFSET 0.000000 11.579437 0.000000
								}
							}
						}
						JOINT HairB
						{
							OFFSET -10.777400 17.437393 1.467900
							CHANNELS 3 Xrotation Yrotation Zrotation
							JOINT HairB1
							{
								OFFSET -1.561200 -12.956299 3.590200
								CHANNELS 3 Xrotation Yrotation Zrotation
								End Site
								{
									OFFSET 0.000000 13.534866 0.000000
								}
							}
						}
						JOINT HairA
						{
							OFFSET 9.713100 17.437393 1.467900
							CHANNELS 3 Xrotation Yrotation Zrotation
							JOINT HairA1
							{
								OFFSET 1.561200 -12.956299 3.590200
								CHANNELS 3 Xrotation Yrotation Zrotation
								End Site
								{
									OFFSET 0.000000 13.534866 0.000000
								}
							}
						}
						JOINT HairC
						{
							OFFSET 9.713100 17.437393 -1.325900
							CHANNELS 3 Xrotation Yrotation Zrotation
							JOINT HairC1
							{
								OFFSET 3.290300 -11.051193 1.062200
								CHANNELS 3 Xrotation Yrotation Zrotation
								End Site
								{
									OFFSET 0.000000 11.579437 0.000000
								}
							}
						}
					}
				}
				JOINT LeftShoulder
				{
					OFFSET 5.101800 15.108002 -2.763700
					CHANNELS 3 Xrotation Yrotation Zrotation
					JOINT LeftArm
					{
						OFFSET 9.825497 2.506317 -1.597400
						CHANNELS 3 Xrotation Yrotation Zrotation
						JOINT LeftForeArm
						{
							OFFSET 21.966244 0.000000 0.000000
							CHANNELS 3 Xrotation Yrotation Zrotation
							JOINT LeftHand
							{
								OFFSET 33.879036 0.000000 0.000000
								CHANNELS 3 Xrotation Yrotation Zrotation
								JOINT LeftHandThumb1
								{
									OFFSET 6.715286 -2.359680 3.363841
									CHANNELS 3 Xrotation Yrotation Zrotation
									JOINT LeftHandThumb2
									{
										OFFSET 2.507072 -1.447464 1.447461
										CHANNELS 3 Xrotation Yrotation Zrotation
										JOINT LeftHandThumb3
										{
											OFFSET 2.898338 -1.673355 1.673357
											CHANNELS 3 Xrotation Yrotation Zrotation
											End Site
											{
												OFFSET -0.295959 3.727692 -0.131651
											}
										}
									}
								}
								JOINT LeftHandIndex1
								{
									OFFSET 14.190811 -0.254547 3.840278
									CHANNELS 3 Xrotation Yrotation Zrotation
									JOINT LeftHandIndex2
									{
										OFFSET 3.551727 0.000000 -0.000000
										CHANNELS 3 Xrotation Yrotation Zrotation
										JOINT LeftHandIndex3
										{
											OFFSET 2.894196 0.000000 0.000000
											CHANNELS 3 Xrotation Yrotation Zrotation
											End Site
											{
												OFFSET -1.000603 2.690872 0.366626
											}
										}
									}
								}
								JOINT LeftHandMiddle1
								{
									OFFSET 13.776489 0.000000 0.000000
									CHANNELS 3 Xrotation Yrotation Zrotation
									JOINT LeftHandMiddle2
									{
										OFFSET 3.438232 0.000000 0.000000
										CHANNELS 3 Xrotation Yrotation Zrotation
										JOINT LeftHandMiddle3
										{
											OFFSET 3.691551 0.000000 0.000000
											CHANNELS 3 Xrotation Yrotation Zrotation
											End Site
											{
												OFFSET -1.082298 3.499527 0.457670
											}
										}
									}
								}
								JOINT LeftHandRing1
								{
									OFFSET 13.966164 -0.268127 -3.067488
									CHANNELS 3 Xrotation Yrotation Zrotation
									JOINT LeftHandRing2
									{
										OFFSET 3.162567 0.000000 0.000000
										CHANNELS 3 Xrotation Yrotation Zrotation
										JOINT LeftHandRing3
										{
											OFFSET 3.324348 0.000000 0.000000
											CHANNELS 3 Xrotation Yrotation Zrotation
											End Site
											{
												OFFSET -0.861900 3.184998 0.405154
											}
										}
									}
								}
								JOINT LeftHandPinky1
								{
									OFFSET 13.131393 -0.168503 -5.746925
									CHANNELS 3 Xrotation Yrotation Zrotation
									JOINT LeftHandPinky2
									{
										OFFSET 2.849182 0.000000 0.000000
										CHANNELS 3 Xrotation Yrotation Zrotation
										JOINT LeftHandPinky3
										{
											OFFSET 2.805038 0.000000 0.000000
											CHANNELS 3 Xrotation Yrotation Zrotation
											End Site
											{
												OFFSET -0.882500 2.642609 0.325652
											}
										}
									}
								}
							}
							JOINT Left_Sleeve
							{
								OFFSET 6.592125 -0.646545 0.805568
								CHANNELS 3 Xrotation Yrotation Zrotation
								End Site
								{
									OFFSET -0.000179 20.275787 -0.000000
								}
							}
						}
					}
				}
				JOINT RightShoulder
				{
					OFFSET -5.731700 15.108002 -2.763700
					CHANNELS 3 Xrotation Yrotation Zrotation
					JOINT RightArm
					{
						OFFSET -9.825497 2.506317 -1.597400
						CHANNELS 3 Xrotation Yrotation Zrotation
						JOINT RightForeArm
						{
							OFFSET -21.966242 0.000000 0.000000
							CHANNELS 3 Xrotation Yrotation Zrotation
							JOINT RightHand
							{
								OFFSET -33.879032 0.000000 0.000000
								CHANNELS 3 Xrotation Yrotation Zrotation
								JOINT RightHandThumb1
								{
									OFFSET -6.715286 -2.359680 3.363841
									CHANNELS 3 Xrotation Yrotation Zrotation
									JOINT RightHandThumb2
									{
										OFFSET -2.507072 -1.447464 1.447461
										CHANNELS 3 Xrotation Yrotation Zrotation
										JOINT RightHandThumb3
										{
											OFFSET -2.898338 -1.673355 1.673357
											CHANNELS 3 Xrotation Yrotation Zrotation
											End Site
											{
												OFFSET 0.295959 3.727692 -0.131651
											}
										}
									}
								}
								JOINT RightHandIndex1
								{
									OFFSET -14.190811 -0.254547 3.840278
									CHANNELS 3 Xrotation Yrotation Zrotation
									JOINT RightHandIndex2
									{
										OFFSET -3.551727 0.000000 -0.000000
										CHANNELS 3 Xrotation Yrotation Zrotation
										JOINT RightHandIndex3
										{
											OFFSET -2.894196 0.000000 0.000000
											CHANNELS 3 Xrotation Yrotation Zrotation
											End Site
											{
												OFFSET 1.000603 2.690872 0.366626
											}
										}
									}
								}
								JOINT RightHandMiddle1
								{
									OFFSET -13.776489 0.000000 0.000000
									CHANNELS 3 Xrotation Yrotation Zrotation
									JOINT RightHandMiddle2
									{
										OFFSET -3.438232 0.000000 0.000000
										CHANNELS 3 Xrotation Yrotation Zrotation
										JOINT RightHandMiddle3
										{
											OFFSET -3.691551 0.000000 0.000000
											CHANNELS 3 Xrotation Yrotation Zrotation
											End Site
											{
												OFFSET 1.082298 3.499527 0.457670
											}
										}
									}
								}
								JOINT RightHandRing1
								{
									OFFSET -13.966164 -0.268127 -3.067488
									CHANNELS 3 Xrotation Yrotation Zrotation
									JOINT RightHandRing2
									{
										OFFSET -3.162567 0.000000 0.000000
										CHANNELS 3 Xrotation Yrotation Zrotation
										JOINT RightHandRing3
										{
											OFFSET -3.324348 0.000000 0.000000
											CHANNELS 3 Xrotation Yrotation Zrotation
											End Site
											{
												OFFSET 0.861900 3.184998 0.405154
											}
										}
									}
								}
								JOINT RightHandPinky1
								{
									OFFSET -13.131393 -0.168503 -5.746925
									CHANNELS 3 Xrotation Yrotation Zrotation
									JOINT RightHandPinky2
									{
										OFFSET -2.849182 0.000000 0.000000
										CHANNELS 3 Xrotation Yrotation Zrotation
										JOINT RightHandPinky3
										{
											OFFSET -2.805038 0.000000 0.000000
											CHANNELS 3 Xrotation Yrotation Zrotation
											End Site
											{
												OFFSET 0.882500 2.642609 0.325652
											}
										}
									}
								}
							}
							JOINT Right_Sleeve
							{
								OFFSET -6.592125 -0.646545 0.805568
								CHANNELS 3 Xrotation Yrotation Zrotation
								End Site
								{
									OFFSET 0.000179 20.275787 -0.000000
								}
							}
						}
					}
				}
				JOINT Bind_Right_JacketString
				{
					OFFSET -3.534800 11.969597 7.200700
					CHANNELS 3 Xrotation Yrotation Zrotation
					JOINT Bind_Right_JacketString1
					{
						OFFSET -0.319900 -6.102600 2.794100
						CHANNELS 3 Xrotation Yrotation Zrotation
						End Site
						{
							OFFSET 0.000000 6.719452 0.000000
						}
					}
				}
				JOINT Bind_Left_JacketString
				{
					OFFSET 2.904800 11.969597 7.200700
					CHANNELS 3 Xrotation Yrotation Zrotation
					JOINT Bind_Left_JacketString1
					{
						OFFSET 0.364800 -5.904503 3.186800
						CHANNELS 3 Xrotation Yrotation Zrotation
						End Site
						{
							OFFSET 0.000000 6.719513 0.000000
						}
					}
				}
				JOINT HairE
				{
					OFFSET 5.915200 17.612701 -11.592200
					CHANNELS 3 Xrotation Yrotation Zrotation
					JOINT HairE1
					{
						OFFSET 0.289200 -7.171898 -1.284500
						CHANNELS 3 Xrotation Yrotation Zrotation
						End Site
						{
							OFFSET 0.000000 7.291756 0.000000
						}
					}
				}
				JOINT HairF
				{
					OFFSET -0.864800 17.612701 -11.592200
					CHANNELS 3 Xrotation Yrotation Zrotation
					JOINT HairF1
					{
						OFFSET 0.000000 -14.087097 -2.127501
						CHANNELS 3 Xrotation Yrotation Zrotation
						End Site
						{
							OFFSET 0.000000 14.246841 0.000000
						}
					}
				}
				JOINT HairG
				{
					OFFSET -8.087700 17.612701 -11.592200
					CHANNELS 3 Xrotation Yrotation Zrotation
					JOINT HairG1
					{
						OFFSET -0.293600 -6.081398 -0.910100
						CHANNELS 3 Xrotation Yrotation Zrotation
						End Site
						{
							OFFSET 0.000000 6.156120 0.000000
						}
					}
				}
			}
		}
	}
	JOINT Pouch
	{
		OFFSET 0.000000 4.394501 10.847300
		CHANNELS 3 Xrotation Yrotation Zrotation
		End Site
		{
			OFFSET 0.000000 21.880577 0.000000
		}
	}
	JOINT Bag
	{
		OFFSET -13.229000 4.813004 -0.593300
		CHANNELS 3 Xrotation Yrotation Zrotation
		End Site
		{
			OFFSET 0.000000 21.880577 0.000000
		}
	}
	JOINT OccupyGuyFacialAnim_Joint
	{
		OFFSET 1.000000 -70.206398 -1.655000
		CHANNELS 3 Xrotation Yrotation Zrotation
		End Site
		{
			OFFSET 0.000000 21.880577 0.000000
		}
	}
}
MOTION
Frames: 4
Frame Time: 0.033333
15.238621 129.272995 120.565063 -134.080834 -36.862767 34.377462 0.000001 0.000001 0.000002 -49.873761 7.171261 9.724676 68.803002 -6.412962 -7.370986 12.614395 6.646180 -16.840298 0.000001 0.000000 -0.000001 -0.000002 0.000001 -0.000000 0.317823 -1.946614 -28.023204 19.533581 5.132144 6.121528 26.317591 -12.202987 -14.762764 0.000000 0.000001 0.000000 0.000002 -0.000003 0.000004 0.049789 6.503665 -3.536633 0.570215 6.561182 -4.946105 0.651013 6.542333 -4.971909 -26.288121 0.007698 -0.406065 -52.562885 -0.682829 0.539230 0.000001 -0.000003 -0.000001 0.000001 -0.000003 -0.000001 0.000001 -0.000003 -0.000001 0.000001 -0.000003 -0.000001 0.000001 -0.000001 -0.000000 0.000001 -0.000003 -0.000001 0.000001 -0.000001 -0.000000 0.000001 -0.000003 -0.000001 0.000001 -0.000003 -0.000001 10.957294 -15.803424 -9.660936 -6.841181 -21.238342 -27.631867 0.000020 -14.445609 0.000002 5.339191 4.581364 20.885498 -3.725176 2.455150 7.529530 7.295442 22.271201 2.143056 -0.000000 0.000002 0.000002 0.151764 3.370845 -9.914944 0.376519 2.068152 -20.633616 0.000001 -0.000000 0.000003 0.176976 3.543674 -14.536873 0.298903 1.849108 -18.363124 0.000002 -0.000000 0.000002 0.238222 3.840337 -18.718357 0.450911 2.255764 -22.605633 0.000001 -0.000001 -0.000002 -1.413582 -1.573730 -17.353986 0.615286 2.615506 -26.472273 -0.000002 0.000000 0.000001 0.000001 -0.000001 0.000001 7.373730 11.339342 8.099586 -13.635132 1.014716 63.513000 -0.000015 51.746073 0.000001 47.127742 4.265014 12.674561 -6.746948 1.124857 -9.246511 6.358374 -14.447585 -2.112193 0.000002 0.000000 0.000001 0.177692 -3.942505 5.042948 0.031158 -0.538403 6.624262 -0.000000 -0.000001 0.000004 0.833639 -6.874837 10.542113 0.000421 -0.062954 0.772807 0.000002 -0.000000 -0.000001 2.441433 -10.340952 17.847377 0.009152 -0.292136 3.588530 0.000007 -0.000001 0.000001 0.802569 -7.451084 8.737978 0.123832 -1.067935 13.228347 -0.000001 0.000001 -0.000001 -0.000001 -0.000002 0.000000 -0.000002 0.000001 0.000000 0.000001 0.000001 0.000001 -0.000002 0.000001 0.000001 -0.000002 0.000001 0.000001 -0.000002 0.000001 0.000000 0.000001 0.000001 0.000001 -0.000002 0.000001 0.000001 -0.000002 0.000001 0.000001 -0.000002 0.000001 0.000000 0.000001 0.000001 0.000001 0.000001 0.000001 0.000002 0.000001 0.000001 0.000002 0.000001 0.000001 0.000002 
15.154409 129.801865 120.473335 -148.579209 -36.750570 29.877061 -0.000000 -0.000000 0.000002 -59.937007 3.289909 7.504095 79.586614 -0.001614 -4.309549 2.363472 9.980015 -17.284362 0.000002 0.000001 -0.000000 -0.000001 0.000000 -0.000001 -4.578453 8.002310 -30.395967 36.828677 4.884542 5.725982 16.093869 -10.933275 -9.520594 -0.000000 -0.000002 0.000002 0.000000 0.000001 -0.000002 0.855878 5.050267 -5.188558 1.692508 5.923078 -5.293532 1.777600 5.907132 -5.291236 -26.577622 -0.100441 0.380144 -52.488979 -0.086423 0.990439 -0.000001 -0.000000 -0.000000 -0.000001 -0.000000 -0.000000 -0.000001 -0.000000 -0.000001 -0.000001 -0.000000 -0.000000 -0.000000 0.000001 -0.000000 -0.000001 -0.000000 -0.000000 -0.000000 0.000001 -0.000000 -0.000001 -0.000000 -0.000000 -0.000001 -0.000000 -0.000000 12.054836 -17.123076 -9.603443 -11.844097 -26.549026 -30.533893 -0.000006 -15.251609 -0.000016 6.034653 6.239513 17.388156 -3.724104 2.454693 7.530244 7.295137 22.271100 2.144197 0.000002 -0.000001 -0.000000 0.151764 3.370854 -9.914936 0.376507 2.068153 -20.633612 0.000002 0.000001 -0.000000 0.177005 3.543736 -14.536867 0.298908 1.849107 -18.363128 -0.000001 0.000001 -0.000003 0.238217 3.840342 -18.718349 0.450910 2.255746 -22.605640 0.000000 -0.000004 0.000000 -1.413562 -1.573738 -17.353989 0.615295 2.615484 -26.472305 0.000002 -0.000002 0.000001 0.000000 -0.000000 -0.000001 7.539746 12.349025 7.713333 -24.188053 1.152602 64.881326 -0.000023 47.197720 0.000036 46.248789 5.253232 9.026166 -6.747179 1.124903 -9.246614 6.358367 -14.447602 -2.112222 -0.000002 -0.000002 0.000005 0.177690 -3.942500 5.042960 0.042943 -0.631652 7.778069 0.000002 -0.000000 0.000000 0.833659 -6.874832 10.542096 0.001397 -0.114659 1.407519 0.000002 -0.000002 0.000001 2.441447 -10.340953 17.847366 0.013237 -0.351234 4.315766 0.000000 -0.000001 -0.000000 0.858412 -7.503572 9.330744 0.136519 -1.120463 13.891883 -0.000002 0.000000 -0.000001 0.000000 0.000002 -0.000001 0.000003 -0.000001 -0.000000 0.000001 -0.000001 -0.000000 0.000003 -0.000001 -0.000000 0.000003 -0.000001 -0.000000 0.000003 -0.000001 -0.000000 0.000001 -0.000001 0.000000 0.000003 -0.000001 -0.000000 0.000003 -0.000001 -0.000000 0.000003 -0.000001 -0.000000 0.000001 -0.000001 0.000000 -0.000000 -0.000000 0.000002 -0.000000 -0.000000 0.000002 -0.000000 -0.000000 0.000002 
15.028511 130.224777 120.641747 -163.960904 -35.153536 24.103376 -0.000000 0.000001 -0.000002 -68.463043 0.685859 6.293376 70.858336 3.741269 -2.909917 -2.138024 9.937033 -21.362281 0.000000 -0.000000 -0.000000 0.000002 -0.000002 -0.000000 -16.507744 17.572735 -27.861564 63.544474 1.364395 5.449579 7.182362 -6.757910 -1.962216 -0.000001 0.000001 -0.000000 -0.000001 -0.000001 -0.000000 1.357233 3.559844 -6.015386 2.573263 4.238776 -5.223084 2.635313 4.209721 -5.211728 -26.886220 -0.161993 1.148876 -51.973078 0.706099 1.673128 -0.000000 -0.000000 -0.000002 -0.000000 -0.000000 -0.000002 -0.000000 -0.000000 -0.000002 -0.000000 -0.000000 -0.000002 0.000000 0.000000 0.000000 -0.000000 -0.000000 -0.000002 0.000000 0.000000 0.000000 -0.000000 -0.000000 -0.000002 -0.000000 -0.000000 -0.000002 12.278710 -17.556378 -9.524822 -20.556969 -31.982310 -30.136208 -0.000004 -12.576561 -0.000009 7.786101 5.997838 14.470526 -3.723072 2.454264 7.530908 7.294561 22.270930 2.146409 -0.000000 -0.000002 -0.000001 0.151752 3.370849 -9.914953 0.376519 2.068154 -20.633617 0.000001 0.000001 -0.000000 0.176963 3.543589 -14.536879 0.298909 1.849096 -18.363139 -0.000000 0.000000 -0.000001 0.238223 3.840343 -18.718359 0.450926 2.255755 -22.605631 -0.000001 -0.000000 -0.000003 -1.413571 -1.573755 -17.353986 0.615300 2.615488 -26.472290 0.000002 -0.000001 -0.000001 0.000000 -0.000000 -0.000001 7.745722 13.358504 6.913939 -35.842046 3.125324 65.275257 -0.000021 43.543839 0.000039 43.343947 7.995213 7.264177 -6.747204 1.124993 -9.246807 6.358353 -14.447592 -2.112218 -0.000001 -0.000001 0.000001 0.177687 -3.942498 5.042952 0.062739 -0.762768 9.406109 -0.000001 -0.000001 -0.000003 0.833636 -6.874825 10.542122 0.004745 -0.210405 2.583633 0.000003 -0.000002 -0.000003 2.441435 -10.340952 17.847377 0.022485 -0.457631 5.626886 0.000001 -0.000001 -0.000000 0.942948 -7.579097 10.219077 0.156343 -1.197774 14.871979 -0.000003 -0.000002 0.000002 -0.000001 0.000002 0.000001 -0.000001 -0.000002 0.000001 0.000001 -0.000000 -0.000000 -0.000001 -0.000002 0.000001 -0.000001 -0.000002 0.000001 -0.000001 -0.000002 0.000001 0.000001 -0.000000 -0.000000 -0.000001 -0.000002 0.000001 -0.000001 -0.000002 0.000001 -0.000001 -0.000002 0.000001 0.000001 -0.000000 -0.000000 -0.000000 0.000001 -0.000002 -0.000000 0.000001 -0.000002 -0.000000 0.000001 -0.000002 
14.637032 131.386124 120.360909 -180.477558 -32.688708 17.290749 -0.000000 -0.000001 -0.000000 -80.243972 -0.226780 8.578926 61.774772 -1.234622 -6.707114 -0.102954 9.200478 -23.311953 -0.000002 -0.000000 0.000001 -0.000001 0.000000 -0.000002 -29.287892 25.296782 -25.509684 82.799624 7.527665 9.829680 13.487086 -1.373371 1.423038 -0.000001 -0.000000 -0.000000 -0.000004 -0.000001 -0.000001 1.625814 2.751408 -5.776908 3.472748 2.245286 -4.926248 3.505861 2.184107 -4.927017 -26.239142 -0.136675 2.024679 -50.977148 2.094937 2.140082 0.000000 0.000000 0.000001 0.000000 0.000000 0.000001 0.000000 0.000000 0.000000 0.000000 0.000000 0.000001 -0.000001 -0.000001 -0.000001 0.000000 0.000000 0.000001 -0.000001 -0.000001 -0.000001 0.000000 0.000000 0.000001 0.000000 0.000000 0.000001 11.646285 -17.622076 -9.538860 -34.317944 -38.535296 -29.021518 0.000007 -7.610762 -0.000007 6.921394 -1.155032 20.329209 -3.722140 2.453901 7.531516 7.293966 22.270733 2.148714 -0.000000 0.000002 -0.000001 0.151753 3.370861 -9.914943 0.376522 2.068133 -20.633626 -0.000000 0.000000 -0.000000 0.176868 3.543233 -14.536917 0.298908 1.849106 -18.363133 -0.000001 0.000000 -0.000001 0.238216 3.840341 -18.718349 0.450909 2.255756 -22.605643 -0.000001 0.000001 0.000001 -1.413569 -1.573755 -17.353991 0.615293 2.615491 -26.472295 -0.000001 -0.000002 0.000001 -0.000001 -0.000000 0.000001 7.860759 14.118703 5.424245 -47.248595 6.806408 63.607223 0.000020 41.540487 -0.000026 37.388746 10.010867 7.543607 -6.746960 1.125119 -9.247023 6.358378 -14.447594 -2.112220 0.000002 0.000002 0.000000 0.177685 -3.942512 5.042943 0.091586 -0.920002 11.369227 -0.000001 -0.000001 0.000005 0.833661 -6.874828 10.542109 0.012340 -0.339330 4.169351 0.000004 0.000002 -0.000002 2.441453 -10.340941 17.847373 0.038637 -0.599372 7.378063 -0.000001 0.000001 -0.000002 1.049634 -7.669753 11.321459 0.182591 -1.292572 16.079997 -0.000000 0.000000 -0.000003 -0.000000 0.000000 -0.000001 -0.000001 -0.000002 -0.000000 -0.000000 0.000002 -0.000000 -0.000001 -0.000002 -0.000000 -0.000001 -0.000002 -0.000000 -0.000001 -0.000002 -0.000000 -0.000000 0.000002 -0.000000 -0.000001 -0.000002 -0.000000 -0.000001 -0.000002 -0.000000 -0.000001 -0.000002 -0.000000 -0.000000 0.000002 -0.000000 -0.000000 -0.000001 -0.000000 -0.000000 -0.000001 -0.000000 -0.000000 -0.000001 -0.000000 
